<svg id="Capa_1" data-name="Capa 1" xmlns="http://www.w3.org/2000/svg" viewBox="0 0 512 512"><defs><style>.cls-1{fill:#3479f0;}</style></defs><title>design</title><circle class="cls-1" cx="48.92" cy="37.81" r="10.1"/><circle class="cls-1" cx="90.33" cy="37.81" r="10.1"/><circle class="cls-1" cx="131.75" cy="37.81" r="10.1"/><path class="cls-1" d="M484.5,0H27.5A27.54,27.54,0,0,0,0,27.5V258.56a7.5,7.5,0,0,0,15,0V75.61H497v72.85a7.5,7.5,0,1,0,15,0V27.5A27.54,27.54,0,0,0,484.5,0ZM15,60.61V27.5A12.52,12.52,0,0,1,27.5,15h457A12.52,12.52,0,0,1,497,27.5V60.61Z" transform="translate(0 0)"/><path class="cls-1" d="M504.5,176.08a7.5,7.5,0,0,0-7.5,7.5V484.5A12.52,12.52,0,0,1,484.5,497H27.5A12.52,12.52,0,0,1,15,484.5V293.56a7.5,7.5,0,0,0-15,0V484.5A27.54,27.54,0,0,0,27.5,512h457A27.54,27.54,0,0,0,512,484.5V183.58a7.5,7.5,0,0,0-7.5-7.5Z" transform="translate(0 0)"/><path class="cls-1" d="M231.76,99H45.89a7.49,7.49,0,0,0-7.5,7.5V465.1a7.5,7.5,0,0,0,7.5,7.5H231.76a7.5,7.5,0,0,0,7.5-7.5v-1.4h0V106.49A7.49,7.49,0,0,0,231.76,99ZM53.39,137.26l77,148.54-77,148.53ZM58.22,114h161.2l-80.6,155.5Zm80.6,188.1,80.6,155.5H58.22Zm8.45-16.3,77-148.53V434.34Z" transform="translate(0 0)"/><path class="cls-1" d="M280.24,299.87H466.11a7.5,7.5,0,0,0,7.5-7.5V106.5a7.49,7.49,0,0,0-7.5-7.5H280.24a7.5,7.5,0,0,0-7.5,7.5V292.37A7.5,7.5,0,0,0,280.24,299.87Zm178.37-25.61-74.82-74.83,74.82-74.83ZM448,284.87H298.35L373.18,210Zm-74.83-96.05L298.35,114H448Zm-10.61,10.61-74.83,74.83V124.6Z" transform="translate(0 0)"/><path class="cls-1" d="M280.24,334.21H466.11a7.5,7.5,0,0,0,0-15H280.24a7.5,7.5,0,0,0,0,15Z" transform="translate(0 0)"/><path class="cls-1" d="M280.24,374.62H466.11a7.5,7.5,0,0,0,0-15H280.24a7.5,7.5,0,0,0,0,15Z" transform="translate(0 0)"/><path class="cls-1" d="M280.24,415H384.29a7.5,7.5,0,0,0,0-15h-104a7.5,7.5,0,0,0,0,15Z" transform="translate(0 0)"/></svg>